<svg width="297" height="268" viewBox="0 0 297 268" fill="none" xmlns="http://www.w3.org/2000/svg">
<path d="M147.926 0C66.2391 0 0 61.4318 0 137.214C0 197.84 42.3851 249.273 101.161 267.417C108.553 268.687 111.268 264.44 111.268 260.816C111.268 257.544 111.13 246.734 111.068 235.269C69.9133 243.57 61.2296 219.08 61.2296 219.08C54.5007 203.219 44.8052 199.003 44.8052 199.003C31.3845 190.486 45.8169 190.661 45.8169 190.661C60.6715 191.629 68.4933 204.801 68.4933 204.801C81.6866 225.779 103.098 219.714 111.54 216.209C112.867 207.339 116.701 201.287 120.931 197.86C88.0756 194.39 53.5354 182.624 53.5354 130.048C53.5354 115.068 59.3142 102.827 68.7775 93.2179C67.2415 89.7614 62.1786 75.8059 70.2103 56.9055C70.2103 56.9055 82.6321 53.2176 110.9 70.9708C122.699 67.9296 135.354 66.4058 147.926 66.3541C160.497 66.4058 173.161 67.9296 184.983 70.9708C213.218 53.2176 225.623 56.9055 225.623 56.9055C233.674 75.8059 228.609 89.7614 227.073 93.2179C236.557 102.827 242.296 115.067 242.296 130.048C242.296 182.749 207.691 194.354 174.752 197.75C180.057 202.009 184.785 210.36 184.785 223.16C184.785 241.52 184.613 256.296 184.613 260.816C184.613 264.467 187.276 268.746 194.775 267.399C253.518 249.234 295.85 197.819 295.85 137.214C295.85 61.4318 229.62 0 147.926 0Z" fill="#FBFBFB"/>
<path d="M55.4033 195.465C55.0784 196.146 53.9206 196.35 52.8683 195.883C51.7952 195.436 51.1919 194.506 51.54 193.821C51.859 193.12 53.0168 192.924 54.0877 193.395C55.1631 193.842 55.7757 194.78 55.4033 195.465ZM62.6798 201.487C61.9744 202.094 60.595 201.812 59.6587 200.853C58.6912 199.896 58.5102 198.618 59.226 198.001C59.9534 197.395 61.2911 197.678 62.261 198.636C63.2285 199.604 63.4165 200.875 62.6786 201.488M67.6719 209.192C66.7647 209.776 65.282 209.229 64.3666 208.008C63.4606 206.789 63.4606 205.325 64.3864 204.739C65.3052 204.152 66.7647 204.68 67.6928 205.89C68.5977 207.131 68.5977 208.595 67.6708 209.193M76.1132 218.117C75.3023 218.945 73.576 218.723 72.3114 217.591C71.019 216.485 70.6582 214.915 71.4714 214.085C72.2917 213.254 74.0284 213.488 75.3023 214.61C76.5866 215.715 76.9775 217.297 76.1132 218.117ZM87.0233 221.13C86.6672 222.204 85.0035 222.692 83.3282 222.236C81.6553 221.766 80.5601 220.507 80.8977 219.421C81.2458 218.339 82.9164 217.83 84.6044 218.319C86.275 218.787 87.3714 220.036 87.0233 221.13ZM99.4416 222.407C99.4834 223.539 98.0622 224.478 96.3034 224.498C94.5342 224.534 93.1037 223.618 93.0852 222.505C93.0852 221.362 94.4739 220.432 96.2419 220.405C98.0007 220.373 99.4416 221.283 99.4416 222.407ZM111.64 221.973C111.851 223.078 110.628 224.212 108.882 224.513C107.165 224.804 105.575 224.122 105.356 223.028C105.143 221.896 106.389 220.763 108.102 220.469C109.852 220.187 111.417 220.851 111.64 221.973Z" fill="#FBFBFB"/>
</svg>
